HIERARCHY
ROOT Hips
{
	OFFSET -0.001795 -0.223333 0.028219
	CHANNELS 6 Xposition Yposition Zposition Zrotation Yrotation Xrotation 
	JOINT LeftUpLeg
	{
		OFFSET 0.069520 -0.091406 -0.006815
		CHANNELS 3 Zrotation Yrotation Xrotation
		JOINT LeftLeg
		{
			OFFSET 0.034277 -0.375199 -0.004496
			CHANNELS 3 Zrotation Yrotation Xrotation
			JOINT LeftFoot
			{
				OFFSET -0.013596 -0.397961 -0.043693
				CHANNELS 3 Zrotation Yrotation Xrotation
				JOINT LeftToe
				{
					OFFSET 0.026358 -0.055791 0.119288
					CHANNELS 3 Zrotation Yrotation Xrotation
					End Site
					{
						OFFSET 0.000000 0.000000 0.000000
					}
				}
			}
		}
	}
	JOINT RightUpLeg
	{
		OFFSET -0.067670 -0.090522 -0.004320
		CHANNELS 3 Zrotation Yrotation Xrotation
		JOINT RightLeg
		{
			OFFSET -0.038290 -0.382569 -0.008850
			CHANNELS 3 Zrotation Yrotation Xrotation
			JOINT RightFoot
			{
				OFFSET 0.015774 -0.398415 -0.042312
				CHANNELS 3 Zrotation Yrotation Xrotation
				JOINT RightToe
				{
					OFFSET -0.025372 -0.048144 0.123348
					CHANNELS 3 Zrotation Yrotation Xrotation
					End Site
					{
						OFFSET 0.000000 0.000000 0.000000
					}
				}
			}
		}
	}
	JOINT Spine
	{
		OFFSET -0.002533 0.108963 -0.026696
		CHANNELS 3 Zrotation Yrotation Xrotation
		JOINT Spine1
		{
			OFFSET 0.005487 0.135180 0.001092
			CHANNELS 3 Zrotation Yrotation Xrotation
			JOINT Spine2
			{
				OFFSET 0.001457 0.052922 0.025425
				CHANNELS 3 Zrotation Yrotation Xrotation
				JOINT Neck
				{
					OFFSET -0.002778 0.213870 -0.042857
					CHANNELS 3 Zrotation Yrotation Xrotation
					JOINT Head
					{
						OFFSET 0.005152 0.064970 0.051349
						CHANNELS 3 Zrotation Yrotation Xrotation
						End Site
						{
							OFFSET 0.000000 0.000000 0.000000
						}
					}
				}
				JOINT LeftShoulder
				{
					OFFSET 0.078845 0.121749 -0.034090
					CHANNELS 3 Zrotation Yrotation Xrotation
					JOINT LeftArm
					{
						OFFSET 0.090977 0.030469 -0.008868
						CHANNELS 3 Zrotation Yrotation Xrotation
						JOINT LeftForeArm
						{
							OFFSET 0.259612 -0.012772 -0.027456
							CHANNELS 3 Zrotation Yrotation Xrotation
							JOINT LeftHand
							{
								OFFSET 0.249234 0.008986 -0.001171
								CHANNELS 3 Zrotation Yrotation Xrotation
								End Site
								{
									OFFSET 0.000000 0.000000 0.000000
								}
							}
						}
					}
				}
				JOINT RightShoulder
				{
					OFFSET -0.081759 0.118833 -0.038615
					CHANNELS 3 Zrotation Yrotation Xrotation
					JOINT RightArm
					{
						OFFSET -0.096012 0.032551 -0.009143
						CHANNELS 3 Zrotation Yrotation Xrotation
						JOINT RightForeArm
						{
							OFFSET -0.253742 -0.013329 -0.021401
							CHANNELS 3 Zrotation Yrotation Xrotation
							JOINT RightHand
							{
								OFFSET -0.255298 0.007772 -0.005559
								CHANNELS 3 Zrotation Yrotation Xrotation
								End Site
								{
									OFFSET 0.000000 0.000000 0.000000
								}
							}
						}
					}
				}
			}
		}
	}
}
MOTION
Frames: 16
Frame Time: 0.050000
-0.008669 0.604136 -0.060129 -0.859771 -4.157374 -17.324857 9.674344 0.875367 -61.130004 -9.759790 8.501100 88.443869 0.486235 -7.529376 -14.147952 0.000000 0.000000 0.000000 -7.310338 4.205453 -63.237593 15.973297 -12.464490 90.215094 -2.059823 -2.425321 -6.262761 0.000000 0.000000 0.000000 3.007595 -1.605128 32.429428 -1.363935 0.704744 -5.681693 -4.012635 5.169376 2.267919 9.305344 -3.884866 -17.761949 0.000000 0.000000 0.000000 -15.317607 -5.754931 0.305575 -55.137002 -8.928317 -2.513623 -1.552128 -20.289472 0.809524 0.000000 0.000000 0.000000 13.995923 0.194160 -0.555810 61.303674 7.734785 -2.065963 4.546757 25.344793 1.991291 0.000000 0.000000 0.000000 
-0.008820 0.604134 -0.060863 -0.895193 -4.304226 -17.194791 9.830142 1.028208 -61.221463 -9.770763 8.580221 88.592461 0.573311 -7.304373 -14.191007 0.000000 0.000000 0.000000 -7.311070 4.264272 -63.303824 16.138511 -12.588436 90.098279 -2.108693 -2.504141 -6.396633 0.000000 0.000000 0.000000 2.980811 -1.578260 32.267949 -1.392706 0.714951 -5.711378 -3.891861 5.131176 2.256432 9.229820 -3.887203 -17.565972 0.000000 0.000000 0.000000 -15.295340 -5.606066 0.266314 -55.188190 -8.704976 -2.625102 -1.482772 -19.826389 0.787967 0.000000 0.000000 0.000000 14.009828 0.272479 -0.540171 61.297196 7.782304 -2.041646 4.465039 25.609689 1.991556 0.000000 0.000000 0.000000 
-0.008946 0.604076 -0.061588 -0.926942 -4.406724 -17.140376 9.893161 1.104518 -61.231021 -9.831424 8.679755 88.537661 0.602126 -7.172835 -14.136439 0.000000 0.000000 0.000000 -7.363266 4.277229 -63.387784 16.296118 -12.721790 89.993328 -2.116066 -2.573418 -6.307047 0.000000 0.000000 0.000000 2.969101 -1.564773 32.222107 -1.382906 0.708489 -5.713942 -3.793175 5.195706 2.218473 9.152766 -3.845758 -17.517476 0.000000 0.000000 0.000000 -15.219905 -5.483257 0.218298 -55.239624 -8.516646 -2.718221 -1.604296 -19.504104 0.798099 0.000000 0.000000 0.000000 14.055952 0.172732 -0.590177 61.178300 7.741583 -2.059054 4.568432 25.882367 2.038367 0.000000 0.000000 0.000000 
-0.009056 0.604030 -0.062308 -0.904223 -4.459758 -17.126625 9.885138 1.122902 -61.272652 -9.904559 8.799135 88.579804 0.600639 -7.117281 -14.060115 0.000000 0.000000 0.000000 -7.389820 4.288514 -63.440211 16.400877 -12.799497 89.875995 -2.121575 -2.632453 -6.224154 0.000000 0.000000 0.000000 2.936919 -1.550720 32.220475 -1.367039 0.699504 -5.605066 -3.736089 5.186787 2.071337 8.980689 -3.762261 -17.381217 0.000000 0.000000 0.000000 -15.238016 -5.280350 0.126507 -55.298151 -8.338578 -2.794443 -1.635028 -19.241106 0.793812 0.000000 0.000000 0.000000 14.063780 0.199914 -0.588384 61.088945 7.694634 -2.069996 4.555457 25.917727 2.033784 0.000000 0.000000 0.000000 
-0.009184 0.604159 -0.063026 -0.887513 -4.488245 -17.077303 9.863336 1.123975 -61.343965 -9.906285 8.838123 88.721829 0.582611 -7.119365 -13.991545 0.000000 0.000000 0.000000 -7.471782 4.259643 -63.524960 16.509947 -12.904072 89.807990 -2.155009 -2.739720 -6.209829 0.000000 0.000000 0.000000 2.953907 -1.552139 32.226375 -1.361574 0.696715 -5.685670 -3.634642 5.137527 2.190911 8.871898 -3.705799 -17.388035 0.000000 0.000000 0.000000 -15.240087 -5.116839 0.073377 -55.344780 -8.252883 -2.853270 -1.653877 -19.161053 0.799235 0.000000 0.000000 0.000000 13.951277 0.184489 -0.601918 61.041978 7.758360 -2.044960 4.552003 25.906881 2.029080 0.000000 0.000000 0.000000 
-0.009320 0.604359 -0.063746 -0.851576 -4.445162 -16.949413 9.847654 1.104027 -61.441221 -10.050687 9.008262 88.748845 0.576412 -7.094431 -13.934561 0.000000 0.000000 0.000000 -7.568259 4.203930 -63.686821 16.538122 -12.959082 89.803098 -2.101840 -2.712513 -5.951028 0.000000 0.000000 0.000000 2.932754 -1.552179 32.222863 -1.289861 0.664501 -5.716334 -3.625181 5.186310 2.133028 8.674973 -3.587256 -17.307439 0.000000 0.000000 0.000000 -15.224165 -4.929415 -0.024286 -55.489041 -8.188297 -2.887386 -1.632710 -19.147504 0.792091 0.000000 0.000000 0.000000 13.826045 0.033641 -0.658016 60.982135 7.707076 -2.056017 4.807064 25.826965 2.078616 0.000000 0.000000 0.000000 
-0.009440 0.604695 -0.064486 -0.796293 -4.401504 -16.888511 9.796627 1.061855 -61.511319 -10.172601 9.154513 88.778249 0.617192 -6.967518 -13.927427 0.000000 0.000000 0.000000 -7.599686 4.180214 -63.762655 16.433432 -12.861271 89.861929 -2.042829 -2.583617 -5.860690 0.000000 0.000000 0.000000 2.979074 -1.567725 32.244633 -1.339963 0.688593 -5.837583 -3.579189 5.157529 2.289352 8.601944 -3.506162 -17.544055 0.000000 0.000000 0.000000 -15.251235 -4.757026 -0.095384 -55.532801 -8.180409 -2.909141 -1.727425 -19.259871 0.814733 0.000000 0.000000 0.000000 13.738257 -0.034069 -0.686206 60.935892 7.739874 -2.049069 4.832098 25.572084 2.060502 0.000000 0.000000 0.000000 
-0.009512 0.605162 -0.065279 -0.771757 -4.325342 -16.819250 9.676142 0.959858 -61.499013 -10.145065 9.111595 88.785945 0.589464 -7.176497 -14.082337 0.000000 0.000000 0.000000 -7.635341 4.136536 -63.812373 16.388610 -12.876323 90.034463 -2.007486 -2.556566 -5.709400 0.000000 0.000000 0.000000 3.092939 -1.605273 32.299559 -1.359303 0.699056 -5.889165 -3.661437 5.331837 2.374116 8.589543 -3.474673 -17.549736 0.000000 0.000000 0.000000 -15.366858 -4.849218 -0.107197 -55.433120 -8.369844 -2.808007 -1.742746 -19.295398 0.810214 0.000000 0.000000 0.000000 13.611740 -0.222708 -0.731310 60.947640 7.621792 -2.105548 4.982537 25.415755 2.092083 0.000000 0.000000 0.000000 
-0.009521 0.605539 -0.066086 -0.722370 -4.234511 -16.784440 9.575366 0.866603 -61.504271 -10.263660 9.239001 88.802676 0.675279 -7.025063 -14.214970 0.000000 0.000000 0.000000 -7.758888 4.039294 -63.903465 16.335924 -12.858612 90.107823 -1.917202 -2.356334 -5.581299 0.000000 0.000000 0.000000 3.212069 -1.644967 32.362649 -1.402309 0.719949 -5.826058 -3.743101 5.441342 2.324553 8.575628 -3.421667 -17.678766 0.000000 0.000000 0.000000 -15.400981 -4.858813 -0.142568 -55.455175 -8.544518 -2.713951 -1.721148 -19.430134 0.803218 0.000000 0.000000 0.000000 13.585019 -0.348182 -0.763383 60.864238 7.577657 -2.114239 5.006523 25.036890 2.068571 0.000000 0.000000 0.000000 
-0.009526 0.605955 -0.066920 -0.706695 -4.124351 -16.821473 9.433326 0.735410 -61.424992 -10.259990 9.193214 88.716578 0.680601 -7.082011 -14.308323 0.000000 0.000000 0.000000 -7.895017 3.919672 -63.952919 16.329154 -12.879523 90.071468 -1.842031 -2.269128 -5.319440 0.000000 0.000000 0.000000 3.374135 -1.701792 32.515700 -1.502006 0.767797 -5.825670 -3.869693 5.609672 2.369850 8.642389 -3.399421 -17.888770 0.000000 0.000000 0.000000 -15.491500 -5.142798 -0.071138 -55.399208 -8.753150 -2.603710 -1.751272 -19.520349 0.801729 0.000000 0.000000 0.000000 13.720987 -0.467340 -0.785420 60.691298 7.460015 -2.177912 5.084626 24.802506 2.075232 0.000000 0.000000 0.000000 
-0.009565 0.606384 -0.067785 -0.723609 -4.045199 -16.774335 9.383985 0.673364 -61.398493 -10.222675 9.130145 88.764164 0.687609 -7.262734 -14.554653 0.000000 0.000000 0.000000 -7.999744 3.821779 -63.931198 16.436712 -13.025672 90.018799 -1.858890 -2.302846 -5.348226 0.000000 0.000000 0.000000 3.519429 -1.749467 32.585242 -1.523537 0.779163 -5.782994 -3.968039 5.705774 2.338567 8.758463 -3.460186 -17.846404 0.000000 0.000000 0.000000 -15.499384 -5.280307 -0.042387 -55.427847 -8.986176 -2.484560 -1.680864 -19.562694 0.783983 0.000000 0.000000 0.000000 13.795723 -0.427534 -0.744730 60.635441 7.333490 -2.238039 5.092750 24.589297 2.062931 0.000000 0.000000 0.000000 
-0.009698 0.606724 -0.068643 -0.752856 -3.990259 -16.821576 9.381861 0.646994 -61.296344 -10.208362 9.093791 88.799659 0.746551 -7.183632 -14.678459 0.000000 0.000000 0.000000 -8.082315 3.742868 -63.878415 16.551372 -13.205072 90.122191 -1.795209 -2.179060 -5.229373 0.000000 0.000000 0.000000 3.648417 -1.789451 32.636163 -1.549534 0.792227 -5.699943 -4.050918 5.862426 2.342415 8.909390 -3.503919 -17.992846 0.000000 0.000000 0.000000 -15.345049 -5.731573 0.142536 -55.464499 -9.349365 -2.312689 -1.705219 -19.675214 0.784481 0.000000 0.000000 0.000000 14.014221 -0.503380 -0.756007 60.648608 7.286725 -2.266898 4.938506 24.439216 2.027980 0.000000 0.000000 0.000000 
-0.009866 0.606785 -0.069489 -0.776961 -4.014732 -16.980999 9.354291 0.632841 -61.102929 -10.069525 8.935831 88.817874 0.634343 -7.556182 -14.711744 0.000000 0.000000 0.000000 -8.032191 3.767595 -63.732202 16.606805 -13.281887 90.240563 -1.817947 -2.344411 -5.035577 0.000000 0.000000 0.000000 3.710441 -1.806702 32.760873 -1.437980 0.741314 -5.623917 -4.218858 6.019052 2.301141 9.055429 -3.570296 -18.008836 0.000000 0.000000 0.000000 -15.268100 -6.039454 0.251286 -55.359045 -9.601026 -2.179233 -1.711984 -19.770002 0.779633 0.000000 0.000000 0.000000 14.130071 -0.535622 -0.746544 60.840998 7.129097 -2.351723 4.909315 24.446000 2.033112 0.000000 0.000000 0.000000 
-0.010080 0.606953 -0.070321 -0.815502 -3.984397 -17.178345 9.357587 0.616137 -60.917839 -9.951641 8.779646 88.870206 0.551216 -7.874436 -14.784913 0.000000 0.000000 0.000000 -7.975230 3.769455 -63.532882 16.612670 -13.284416 90.210178 -1.852660 -2.449297 -5.024573 0.000000 0.000000 0.000000 3.762010 -1.829124 32.925098 -1.418927 0.733902 -5.591954 -4.250402 6.035165 2.346895 9.218214 -3.680646 -17.955101 0.000000 0.000000 0.000000 -15.293129 -6.338488 0.376599 -55.187121 -9.926976 -2.016901 -1.843068 -19.946042 0.806328 0.000000 0.000000 0.000000 14.261751 -0.549920 -0.751528 60.965654 6.906394 -2.483279 4.846844 24.489785 2.027787 0.000000 0.000000 0.000000 
-0.010301 0.607228 -0.071138 -0.802140 -4.014684 -17.257180 9.386218 0.643884 -60.790830 -9.878527 8.695390 88.816895 0.423868 -8.161363 -14.660361 0.000000 0.000000 0.000000 -7.924927 3.799970 -63.393877 16.630756 -13.298924 90.275653 -1.905731 -2.634808 -4.960617 0.000000 0.000000 0.000000 3.695622 -1.806792 32.904061 -1.328144 0.690985 -5.474163 -4.315246 6.031736 2.237232 9.245507 -3.709278 -17.877519 0.000000 0.000000 0.000000 -15.159718 -6.480772 0.452380 -55.126977 -10.235024 -1.860302 -1.794177 -20.178408 0.803147 0.000000 0.000000 0.000000 14.291651 -0.536939 -0.749620 61.218254 6.804550 -2.531684 4.820147 24.341845 2.006579 0.000000 0.000000 0.000000 
-0.010531 0.607765 -0.071951 -0.803804 -3.879385 -17.458097 9.325255 0.550473 -60.556210 -9.832502 8.561636 88.659251 0.384906 -8.171713 -14.537506 0.000000 0.000000 0.000000 -7.837367 3.775421 -63.114874 16.532130 -13.210999 90.237258 -1.892537 -2.619896 -4.909540 0.000000 0.000000 0.000000 3.635121 -1.811446 33.049163 -1.230248 0.648769 -5.435989 -4.350337 6.000051 2.237880 9.292560 -3.766863 -17.722544 0.000000 0.000000 0.000000 -15.111676 -6.715289 0.555315 -55.045033 -10.526879 -1.718882 -1.920312 -20.428364 0.831219 0.000000 0.000000 0.000000 14.442228 -0.598278 -0.778912 61.347667 6.630033 -2.638485 4.794220 24.465287 2.016593 0.000000 0.000000 0.000000 
